# xmcd
#
# Track frame offsets: 
#        150
#        52675
#        115341
#        152146
#        174267
#
# Disc length: 3360 seconds
#
# Revision: 0
# Processed by: cddbd v1.5.2PL0 Copyright (c) Steve Scherf et al.
# Submitted via: ExactAudioCopy v0.95b4
#
DISCID=310d1e05
DTITLE=Eric Clapton - 1987-10-06 - Ronnie Scott's '87 - CD2
DYEAR=1987
DGENRE=Blues
TTITLE0=Hurt So Bad
TTITLE1=Wanna Make Love To You
TTITLE2=Someday Baby
TTITLE3=Early In The Morning
TTITLE4=Rock me Baby
EXTD=
EXTT0=
EXTT1=
EXTT2=
EXTT3=
EXTT4=
PLAYORDER=
